<?xml version="1.0" encoding="UTF-8"?> <svg xmlns="http://www.w3.org/2000/svg" xmlns:xlink="http://www.w3.org/1999/xlink" width="887px" height="522px" viewBox="0 0 887 522"><!-- Generator: Sketch 52.6 (67491) - http://www.bohemiancoding.com/sketch --><title>Teen</title><desc>Created with Sketch.</desc><g id="Page-1" stroke="none" stroke-width="1" fill="none" fill-rule="evenodd"><g id="Everyone_01"><g id="Teen"><g id="Group"><g><g><rect id="Rectangle" fill="#231F20" x="2.6" y="3.1" width="880.4" height="418.3"></rect><path d="M880.4,5.4 L880.4,419.2 L5.1,419.2 L5.1,5.4 L880.4,5.4 Z M885.5,0.8 L880.4,0.8 L5.1,0.8 L0,0.8 L0,5.3 L0,419.1 L0,423.6 L5.1,423.6 L886,423.6 L886,0.8 L885.5,0.8 Z" id="Shape" fill="#FFFFFF" fill-rule="nonzero"></path></g><rect id="Rectangle" fill="#FFFFFF" x="17.9" y="20.1" width="244.2" height="68.6"></rect><rect id="Rectangle" fill="#FFFFFF" x="17.8" y="103.7" width="244.3" height="252.3"></rect><g transform="translate(17.000000, 369.000000)" fill="#FFFFFF"><polygon id="Path" points="0.9 35.3 0.9 1.8 49.9 1.8 49.9 9.6 20.6 9.6 20.6 14.4 45.4 14.4 45.4 22.2 20.6 22.2 20.6 27.4 51 27.4 51 35.3"></polygon><path d="M92.7,11.5 C92.4,10.4 91.3,9.6 89.8,9.2 C88.4,8.8 86.7,8.6 84.7,8.6 C80.4,8.6 78.4,9.3 78.4,10.5 C78.4,15.5 113,12.3 113,24.5 C113,32.3 101.4,36 84.9,36 C69,36 58.7,30.8 58.3,24.8 L77.2,24.8 C77.6,26 78.8,26.9 80.5,27.4 C82.1,27.9 84.2,28.2 86.1,28.2 C91,28.2 94.3,27.3 94.3,25.7 C94.3,20.6 59.7,24.1 59.7,11.3 C59.7,4.2 70.7,0.6 85.8,0.6 C102.5,0.6 110.1,5.3 111.5,11.2 L92.7,11.2 L92.7,11.5 Z" id="Path"></path><path d="M142.6,16.3 L150.3,16.3 C156.4,16.3 159.7,15.4 159.7,13.1 C159.7,10.8 156.4,9.6 151.8,9.6 L142.6,9.6 L142.6,16.3 Z M142.6,23.6 L142.6,35.3 L122.9,35.3 L122.9,1.8 L151.3,1.8 C171.3,1.8 177.9,4.9 177.9,11.4 C177.9,15.3 174.8,18.5 167.8,19.6 C174.1,20.9 178,21.7 178,28.4 C178,32.8 177.7,34.3 180.1,34.3 L180.1,35.3 L160.1,35.3 C159.6,34.6 159.1,32.4 159.1,29.5 C159.1,25.1 157.8,23.7 148.6,23.7 L142.6,23.7 L142.6,23.6 Z" id="Shape" fill-rule="nonzero"></path><path d="M209.7,9.6 L209.7,15.2 L217.9,15.2 C221.8,15.2 224.7,14.2 224.7,12.3 C224.7,9.7 220.8,9.6 216.7,9.6 L209.7,9.6 Z M209.7,21.3 L209.7,27.5 L218.3,27.5 C223.2,27.5 226.8,26.9 226.8,24.4 C226.8,21.5 222.2,21.3 215.9,21.3 L209.7,21.3 Z M190.1,35.3 L190.1,1.8 L218.8,1.8 C232.3,1.8 243.1,3.6 243.1,10.2 C243.1,13.7 239.1,16.2 235.2,17.5 C241.7,18.4 245.2,21.6 245.2,25.2 C245.2,32.7 235,35.3 219.3,35.3 L190.1,35.3 Z" id="Shape" fill-rule="nonzero"></path></g><rect id="Rectangle" fill="#FFFFFF" x="277" y="20" width="588.9" height="384.3"></rect><polygon id="Path" fill="#231F20" points="37.4 164 226.4 116.9 241 167.3 180.2 182.4 221 323.9 153.4 340.8 112.6 199.3 51.9 214.4"></polygon><g transform="translate(24.000000, 34.000000)" fill="#231F20" id="Path"><polygon points="180.1 0.3 196.1 0.3 214.8 21.5 214.1 12.6 214.1 0.3 230.5 0.3 230.5 39.1 214.5 39.1 195.8 18 196.2 27.1 196.5 39.1 180.1 39.1"></polygon><polygon points="122.3 0.3 164.8 0.3 164.8 9.3 139.4 9.3 139.4 14.9 160.9 14.9 160.9 24 139.4 24 139.4 30 165.8 30 165.8 39.1 122.3 39.1"></polygon><polygon points="62.4 0.3 105 0.3 105 9.3 79.5 9.3 79.5 14.9 101.1 14.9 101.1 24 79.5 24 79.5 30 106 30 106 39.1 62.4 39.1"></polygon><polygon points="0 0.3 47.9 0.3 47.9 10.5 32.6 10.5 32.6 39.1 15.4 39.1 15.4 10.5 0 10.5"></polygon></g></g><g transform="translate(0.000000, 417.000000)"><rect id="Rectangle" fill="#FFFFFF" x="0.1" y="1.1" width="886" height="103.5"></rect><rect id="Rectangle" fill="#231F20" x="5.5" y="0.8" width="874.9" height="97.7"></rect><rect id="Rectangle" fill="#FFFFFF" x="11.6" y="6.7" width="863" height="85.7"></rect><g transform="translate(226.000000, 28.000000)" fill="#231F20"><rect id="Rectangle" x="0.7" y="0.4" width="4.7" height="35.3"></rect><path d="M13.1,35.7 L13.1,10.2 L17,10.2 L17,13.8 C18.9,11 21.6,9.6 25.1,9.6 C26.6,9.6 28.1,9.9 29.3,10.4 C30.6,11 31.6,11.7 32.2,12.6 C32.8,13.5 33.3,14.6 33.5,15.8 C33.7,16.6 33.7,18 33.7,20 L33.7,35.7 L29.4,35.7 L29.4,20.2 C29.4,18.4 29.2,17.1 28.9,16.2 C28.6,15.3 28,14.6 27.1,14.1 C26.2,13.6 25.2,13.3 24.1,13.3 C22.3,13.3 20.7,13.9 19.3,15.1 C18,16.3 17.3,18.5 17.3,21.8 L17.3,35.8 L13.1,35.8 L13.1,35.7 Z" id="Path"></path><rect id="Rectangle" x="38.8" y="20.8" width="13.3" height="4.4"></rect><path d="M73.9,21.9 L73.9,17.8 L88.8,17.8 L88.8,30.9 C86.5,32.7 84.1,34.1 81.7,35 C79.3,35.9 76.8,36.4 74.2,36.4 C70.7,36.4 67.6,35.7 64.8,34.2 C62,32.7 59.8,30.6 58.4,27.8 C57,25 56.2,21.9 56.2,18.4 C56.2,15 56.9,11.8 58.4,8.8 C59.9,5.8 61.9,3.6 64.6,2.2 C67.3,0.8 70.4,0 73.9,0 C76.4,0 78.8,0.4 80.8,1.2 C82.9,2 84.5,3.2 85.6,4.7 C86.8,6.2 87.7,8.1 88.3,10.5 L84.1,11.7 C83.6,9.9 82.9,8.5 82.1,7.5 C81.3,6.5 80.2,5.6 78.7,5 C77.2,4.4 75.6,4.1 73.8,4.1 C71.7,4.1 69.8,4.4 68.3,5.1 C66.7,5.7 65.5,6.6 64.5,7.7 C63.5,8.8 62.8,9.9 62.3,11.2 C61.4,13.4 61,15.7 61,18.3 C61,21.4 61.5,24.1 62.6,26.2 C63.7,28.3 65.3,29.9 67.3,30.9 C69.4,31.9 71.6,32.4 73.9,32.4 C75.9,32.4 77.9,32 79.8,31.2 C81.7,30.4 83.2,29.6 84.2,28.7 L84.2,22.1 L73.9,22.1 L73.9,21.9 Z" id="Path"></path><path d="M111.8,32.5 C110.2,33.9 108.7,34.8 107.2,35.4 C105.7,36 104.1,36.2 102.4,36.2 C99.6,36.2 97.4,35.5 95.9,34.1 C94.4,32.7 93.6,31 93.6,28.8 C93.6,27.5 93.9,26.4 94.5,25.4 C95.1,24.4 95.8,23.5 96.7,22.9 C97.6,22.3 98.7,21.8 99.8,21.5 C100.6,21.3 101.9,21.1 103.6,20.9 C107.1,20.5 109.7,20 111.3,19.4 C111.3,18.8 111.3,18.4 111.3,18.3 C111.3,16.5 110.9,15.3 110.1,14.6 C109,13.6 107.4,13.1 105.2,13.1 C103.2,13.1 101.7,13.5 100.7,14.2 C99.7,14.9 99,16.2 98.5,18 L94.3,17.4 C94.7,15.6 95.3,14.1 96.2,13 C97.1,11.9 98.4,11 100,10.4 C101.7,9.8 103.6,9.5 105.8,9.5 C108,9.5 109.8,9.8 111.1,10.3 C112.4,10.8 113.5,11.5 114.1,12.2 C114.7,13 115.2,14 115.4,15.1 C115.5,15.8 115.6,17.2 115.6,19.1 L115.6,24.9 C115.6,28.9 115.7,31.5 115.9,32.5 C116.1,33.5 116.4,34.6 117,35.6 L112.5,35.6 C112.3,34.8 112,33.7 111.8,32.5 Z M111.5,22.9 C109.9,23.5 107.6,24.1 104.4,24.5 C102.6,24.8 101.4,25 100.6,25.4 C99.9,25.7 99.3,26.2 98.9,26.8 C98.5,27.4 98.3,28.1 98.3,28.9 C98.3,30.1 98.7,31 99.6,31.8 C100.5,32.6 101.8,33 103.4,33 C105.1,33 106.6,32.6 107.8,31.9 C109.1,31.2 110.1,30.2 110.7,28.9 C111.2,27.9 111.4,26.5 111.4,24.6 L111.4,22.9 L111.5,22.9 Z" id="Shape" fill-rule="nonzero"></path><path d="M122.6,35.7 L122.6,10.2 L126.5,10.2 L126.5,13.8 C127.3,12.5 128.4,11.5 129.7,10.8 C131,10 132.5,9.7 134.2,9.7 C136.1,9.7 137.6,10.1 138.9,10.9 C140.1,11.7 141,12.8 141.5,14.2 C143.5,11.2 146.1,9.7 149.4,9.7 C151.9,9.7 153.9,10.4 155.2,11.8 C156.6,13.2 157.2,15.4 157.2,18.3 L157.2,35.8 L152.9,35.8 L152.9,19.7 C152.9,18 152.8,16.7 152.5,16 C152.2,15.2 151.7,14.6 151,14.2 C150.3,13.7 149.4,13.5 148.4,13.5 C146.6,13.5 145.1,14.1 143.9,15.3 C142.7,16.5 142.1,18.4 142.1,21 L142.1,35.8 L137.8,35.8 L137.8,19.2 C137.8,17.3 137.4,15.8 136.7,14.9 C136,13.9 134.8,13.5 133.2,13.5 C132,13.5 130.9,13.8 129.8,14.5 C128.8,15.1 128,16.1 127.6,17.3 C127.1,18.5 126.9,20.3 126.9,22.6 L126.9,35.9 L122.6,35.9 L122.6,35.7 Z" id="Path"></path><path d="M181.1,27.5 L185.6,28.1 C184.9,30.7 183.6,32.7 181.7,34.2 C179.8,35.6 177.4,36.4 174.4,36.4 C170.7,36.4 167.7,35.2 165.5,32.9 C163.3,30.6 162.2,27.4 162.2,23.2 C162.2,18.9 163.3,15.6 165.5,13.2 C167.7,10.8 170.6,9.6 174.1,9.6 C177.5,9.6 180.3,10.8 182.5,13.1 C184.7,15.4 185.7,18.7 185.7,22.9 L185.7,24.1 L166.7,24.1 C166.9,26.9 167.7,29.1 169.1,30.5 C170.5,32 172.3,32.7 174.4,32.7 C176,32.7 177.3,32.3 178.5,31.4 C179.5,30.6 180.4,29.3 181.1,27.5 Z M166.9,20.5 L181.2,20.5 C181,18.3 180.5,16.7 179.6,15.7 C178.2,14 176.4,13.2 174.2,13.2 C172.2,13.2 170.5,13.9 169.2,15.2 C167.8,16.5 167,18.2 166.9,20.5 Z" id="Shape" fill-rule="nonzero"></path><path d="M205.2,35.7 L205.2,0.4 L218.5,0.4 C220.8,0.4 222.6,0.5 223.9,0.7 C225.6,1 227.1,1.5 228.3,2.3 C229.5,3.1 230.4,4.2 231.1,5.7 C231.8,7.2 232.2,8.8 232.2,10.5 C232.2,13.5 231.2,16 229.3,18.1 C227.4,20.2 223.9,21.2 219,21.2 L210,21.2 L210,35.5 L205.2,35.5 L205.2,35.7 Z M209.9,17.2 L219,17.2 C222,17.2 224.2,16.6 225.4,15.5 C226.7,14.4 227.3,12.8 227.3,10.8 C227.3,9.3 226.9,8.1 226.2,7 C225.5,6 224.5,5.3 223.3,4.9 C222.5,4.7 221.1,4.6 218.9,4.6 L209.9,4.6 L209.9,17.2 Z" id="Shape" fill-rule="nonzero"></path><path d="M254.3,35.7 L254.3,31.9 C252.3,34.8 249.6,36.2 246.2,36.2 C244.7,36.2 243.3,35.9 242,35.3 C240.7,34.7 239.7,34 239.1,33.1 C238.5,32.2 238,31.2 237.8,29.9 C237.6,29 237.5,27.7 237.5,25.9 L237.5,10.1 L241.8,10.1 L241.8,24.3 C241.8,26.6 241.9,28.1 242.1,28.9 C242.4,30 242.9,30.9 243.8,31.6 C244.7,32.2 245.8,32.6 247.1,32.6 C248.4,32.6 249.6,32.3 250.8,31.6 C251.9,30.9 252.7,30 253.2,28.9 C253.7,27.8 253.9,26.1 253.9,23.9 L253.9,10.2 L258.2,10.2 L258.2,35.7 L254.3,35.7 Z" id="Path"></path><path d="M264.9,35.7 L264.9,10.2 L268.8,10.2 L268.8,14.1 C269.8,12.3 270.7,11.1 271.6,10.5 C272.4,9.9 273.4,9.6 274.4,9.6 C275.9,9.6 277.3,10.1 278.8,11 L277.3,15 C276.2,14.4 275.2,14.1 274.1,14.1 C273.2,14.1 272.3,14.4 271.6,15 C270.8,15.6 270.3,16.4 270,17.4 C269.5,18.9 269.3,20.6 269.3,22.5 L269.3,35.9 L264.9,35.9 L264.9,35.7 Z" id="Path"></path><path d="M298,26.3 L302.3,26.9 C301.8,29.8 300.6,32.1 298.7,33.8 C296.8,35.5 294.4,36.3 291.6,36.3 C288.1,36.3 285.3,35.2 283.2,32.9 C281.1,30.6 280,27.3 280,23.1 C280,20.3 280.5,17.9 281.4,15.9 C282.3,13.8 283.7,12.3 285.6,11.2 C287.5,10.2 289.5,9.6 291.7,9.6 C294.5,9.6 296.7,10.3 298.5,11.7 C300.3,13.1 301.4,15.1 301.9,17.7 L297.7,18.3 C297.3,16.6 296.6,15.3 295.6,14.4 C294.6,13.5 293.4,13.1 291.9,13.1 C289.7,13.1 287.9,13.9 286.6,15.4 C285.2,17 284.6,19.4 284.6,22.8 C284.6,26.2 285.3,28.7 286.6,30.3 C287.9,31.9 289.6,32.6 291.7,32.6 C293.4,32.6 294.8,32.1 296,31 C297,30.1 297.7,28.5 298,26.3 Z" id="Path"></path><path d="M306,35.7 L306,0.4 L310.3,0.4 L310.3,13.1 C312.3,10.8 314.9,9.6 317.9,9.6 C319.8,9.6 321.4,10 322.8,10.7 C324.2,11.4 325.2,12.5 325.8,13.8 C326.4,15.1 326.7,17 326.7,19.5 L326.7,35.7 L322.4,35.7 L322.4,19.5 C322.4,17.3 321.9,15.8 321,14.8 C320.1,13.8 318.7,13.3 317,13.3 C315.7,13.3 314.5,13.6 313.4,14.3 C312.3,15 311.5,15.9 311,17 C310.5,18.1 310.3,19.7 310.3,21.7 L310.3,35.7 L306,35.7 Z" id="Path"></path><path d="M350,32.5 C348.4,33.9 346.9,34.8 345.4,35.4 C343.9,36 342.3,36.2 340.6,36.2 C337.8,36.2 335.6,35.5 334.1,34.1 C332.6,32.7 331.8,31 331.8,28.8 C331.8,27.5 332.1,26.4 332.7,25.4 C333.3,24.4 334,23.5 334.9,22.9 C335.8,22.3 336.9,21.8 338,21.5 C338.8,21.3 340.1,21.1 341.8,20.9 C345.3,20.5 347.9,20 349.5,19.4 C349.5,18.8 349.5,18.4 349.5,18.3 C349.5,16.5 349.1,15.3 348.3,14.6 C347.2,13.6 345.6,13.1 343.4,13.1 C341.4,13.1 339.9,13.5 338.9,14.2 C337.9,14.9 337.2,16.2 336.7,18 L332.5,17.4 C332.9,15.6 333.5,14.1 334.4,13 C335.3,11.9 336.6,11 338.2,10.4 C339.9,9.8 341.8,9.5 344,9.5 C346.2,9.5 348,9.8 349.3,10.3 C350.6,10.8 351.7,11.5 352.3,12.2 C352.9,13 353.4,14 353.6,15.1 C353.7,15.8 353.8,17.2 353.8,19.1 L353.8,24.9 C353.8,28.9 353.9,31.5 354.1,32.5 C354.3,33.5 354.6,34.6 355.2,35.6 L350.7,35.6 C350.4,34.8 350.2,33.7 350,32.5 Z M349.7,22.9 C348.1,23.5 345.8,24.1 342.6,24.5 C340.8,24.8 339.6,25 338.8,25.4 C338.1,25.7 337.5,26.2 337.1,26.8 C336.7,27.4 336.5,28.1 336.5,28.9 C336.5,30.1 336.9,31 337.8,31.8 C338.7,32.6 340,33 341.6,33 C343.3,33 344.8,32.6 346,31.9 C347.3,31.2 348.3,30.2 348.9,28.9 C349.4,27.9 349.6,26.5 349.6,24.6 L349.6,22.9 L349.7,22.9 Z" id="Shape" fill-rule="nonzero"></path><path d="M359,28.1 L363.3,27.4 C363.5,29.1 364.2,30.4 365.3,31.3 C366.4,32.2 367.9,32.7 369.9,32.7 C371.9,32.7 373.4,32.3 374.3,31.5 C375.3,30.7 375.7,29.7 375.7,28.6 C375.7,27.6 375.3,26.9 374.4,26.3 C373.8,25.9 372.3,25.4 370,24.8 C366.8,24 364.6,23.3 363.4,22.7 C362.2,22.1 361.2,21.3 360.6,20.3 C360,19.3 359.6,18.1 359.6,16.9 C359.6,15.8 359.9,14.7 360.4,13.7 C360.9,12.7 361.6,11.9 362.5,11.3 C363.2,10.8 364.1,10.4 365.3,10 C366.5,9.7 367.7,9.5 369,9.5 C371,9.5 372.8,9.8 374.3,10.4 C375.8,11 376.9,11.8 377.7,12.7 C378.4,13.7 378.9,15 379.2,16.7 L375,17.3 C374.8,16 374.2,15 373.3,14.2 C372.4,13.5 371.1,13.1 369.4,13.1 C367.4,13.1 366,13.4 365.1,14.1 C364.3,14.8 363.8,15.5 363.8,16.4 C363.8,17 364,17.5 364.3,17.9 C364.7,18.4 365.2,18.8 366,19.1 C366.4,19.3 367.7,19.6 369.8,20.2 C372.9,21 375,21.7 376.2,22.2 C377.4,22.7 378.4,23.5 379.1,24.5 C379.8,25.5 380.1,26.7 380.1,28.2 C380.1,29.6 379.7,31 378.8,32.3 C378,33.6 376.7,34.6 375.2,35.3 C373.6,36 371.8,36.3 369.8,36.3 C366.5,36.3 363.9,35.6 362.2,34.2 C360.6,32.8 359.5,30.8 359,28.1 Z" id="Path"></path><path d="M402.9,27.5 L407.4,28.1 C406.7,30.7 405.4,32.7 403.5,34.2 C401.6,35.6 399.2,36.4 396.2,36.4 C392.5,36.4 389.5,35.2 387.3,32.9 C385.1,30.6 384,27.4 384,23.2 C384,18.9 385.1,15.6 387.3,13.2 C389.5,10.8 392.4,9.6 395.9,9.6 C399.3,9.6 402.1,10.8 404.3,13.1 C406.5,15.4 407.5,18.7 407.5,22.9 L407.5,24.1 L388.5,24.1 C388.7,26.9 389.5,29.1 390.9,30.5 C392.3,32 394.1,32.7 396.2,32.7 C397.8,32.7 399.1,32.3 400.3,31.4 C401.3,30.6 402.2,29.3 402.9,27.5 Z M388.7,20.5 L403,20.5 C402.8,18.3 402.3,16.7 401.4,15.7 C400,14 398.2,13.2 396,13.2 C394,13.2 392.3,13.9 391,15.2 C389.6,16.5 388.8,18.2 388.7,20.5 Z" id="Shape" fill-rule="nonzero"></path><path d="M411,28.1 L415.3,27.4 C415.5,29.1 416.2,30.4 417.3,31.3 C418.4,32.2 419.9,32.7 421.9,32.7 C423.9,32.7 425.4,32.3 426.3,31.5 C427.3,30.7 427.7,29.7 427.7,28.6 C427.7,27.6 427.3,26.9 426.4,26.3 C425.8,25.9 424.3,25.4 422,24.8 C418.8,24 416.6,23.3 415.4,22.7 C414.2,22.1 413.2,21.3 412.6,20.3 C412,19.3 411.6,18.1 411.6,16.9 C411.6,15.8 411.9,14.7 412.4,13.7 C412.9,12.7 413.6,11.9 414.5,11.3 C415.2,10.8 416.1,10.4 417.3,10 C418.5,9.7 419.7,9.5 421,9.5 C423,9.5 424.8,9.8 426.3,10.4 C427.8,11 428.9,11.8 429.7,12.7 C430.4,13.7 430.9,15 431.2,16.7 L427,17.3 C426.8,16 426.2,15 425.3,14.2 C424.4,13.5 423.1,13.1 421.4,13.1 C419.4,13.1 418,13.4 417.1,14.1 C416.3,14.8 415.8,15.5 415.8,16.4 C415.8,17 416,17.5 416.3,17.9 C416.7,18.4 417.2,18.8 418,19.1 C418.4,19.3 419.7,19.6 421.8,20.2 C424.9,21 427,21.7 428.2,22.2 C429.4,22.7 430.4,23.5 431.1,24.5 C431.8,25.5 432.1,26.7 432.1,28.2 C432.1,29.6 431.7,31 430.8,32.3 C430,33.6 428.7,34.6 427.2,35.3 C425.6,36 423.8,36.3 421.8,36.3 C418.5,36.3 415.9,35.6 414.2,34.2 C412.6,32.8 411.5,30.8 411,28.1 Z" id="Path"></path></g></g></g><g id="Group" transform="translate(304.000000, 134.000000)" fill="#231F20"><path d="M17.5,53 L0.6,0 L6.8,0 L18.1,38.5 C19,41.5 19.7,44.4 20.4,47.2 C21.1,44.3 21.8,41.4 22.7,38.5 L34.5,0 L40.4,0 L23.4,52.9 L17.5,52.9 L17.5,53 Z" id="Path"></path><path d="M43.7,7.5 L43.7,0 L49,0 L49,7.5 L43.7,7.5 Z M43.7,53 L43.7,14.6 L49,14.6 L49,53 L43.7,53 Z" id="Shape" fill-rule="nonzero"></path><path d="M55.1,33.8 C55.1,27.2 56.5,22.2 59.3,18.8 C62.1,15.4 65.6,13.7 69.9,13.7 C74.1,13.7 77.6,15.4 80.4,18.8 C83.2,22.2 84.6,27 84.6,33.4 C84.6,40.3 83.2,45.4 80.4,48.8 C77.6,52.2 74.1,53.9 69.8,53.9 C65.6,53.9 62.1,52.2 59.3,48.8 C56.5,45.4 55.1,40.4 55.1,33.8 Z M60.6,33.8 C60.6,38.8 61.5,42.5 63.3,44.9 C65.1,47.3 67.3,48.5 70,48.5 C72.5,48.5 74.7,47.3 76.4,44.8 C78.2,42.4 79.1,38.7 79.1,33.8 C79.1,28.9 78.2,25.2 76.4,22.7 C74.6,20.3 72.4,19.1 69.7,19.1 C67.2,19.1 65,20.3 63.2,22.8 C61.4,25.2 60.6,28.8 60.6,33.8 Z" id="Shape" fill-rule="nonzero"></path><polygon id="Path" points="90.7 53 90.7 0 96 0 96 53"></polygon><path d="M125.8,40.6 L131.3,41.4 C130.4,45.5 128.7,48.6 126.3,50.7 C123.9,52.8 120.9,53.8 117.4,53.8 C112.9,53.8 109.3,52.1 106.6,48.7 C103.8,45.3 102.5,40.4 102.5,34.1 C102.5,27.5 103.9,22.4 106.7,19 C109.5,15.5 113,13.8 117.3,13.8 C121.4,13.8 124.8,15.5 127.5,18.9 C130.2,22.3 131.6,27.3 131.6,33.7 L131.6,35.4 L108,35.4 C108.2,39.7 109.2,43 111,45.2 C112.8,47.4 114.9,48.5 117.5,48.5 C121.5,48.5 124.3,45.9 125.8,40.6 Z M108.3,30.1 L125.9,30.1 C125.7,26.8 124.9,24.3 123.8,22.7 C122.1,20.3 119.9,19.1 117.3,19.1 C114.9,19.1 112.9,20.1 111.2,22.1 C109.4,24 108.5,26.7 108.3,30.1 Z" id="Shape" fill-rule="nonzero"></path><path d="M138.1,53 L138.1,14.6 L142.9,14.6 L142.9,20 C144.1,17.9 145.5,16.3 147.1,15.3 C148.8,14.3 150.7,13.7 152.9,13.7 C154.6,13.7 156.1,14 157.6,14.7 C159,15.4 160.2,16.2 161.1,17.3 C162,18.4 162.6,19.8 163.1,21.5 C163.5,23.2 163.8,25.8 163.8,29.4 L163.8,53 L158.5,53 L158.5,29.6 C158.5,26.8 158.3,24.7 157.8,23.4 C157.3,22.1 156.6,21.1 155.5,20.4 C154.5,19.7 153.3,19.3 151.9,19.3 C149.3,19.3 147.3,20.2 145.8,22.1 C144.3,24 143.5,27.3 143.5,31.9 L143.5,52.9 L138.1,52.9 L138.1,53 Z" id="Path"></path><path d="M192.4,38.9 L197.6,39.7 C197,44.3 195.5,47.8 193.1,50.2 C190.7,52.6 187.8,53.8 184.4,53.8 C180.3,53.8 176.9,52.1 174.2,48.7 C171.5,45.3 170.2,40.3 170.2,33.7 C170.2,27 171.5,22 174.2,18.7 C176.9,15.4 180.3,13.7 184.5,13.7 C187.8,13.7 190.5,14.7 192.7,16.7 C194.9,18.7 196.4,21.8 197,25.8 L191.8,26.7 C191.3,24.1 190.4,22.2 189.2,20.9 C187.9,19.6 186.4,19 184.7,19 C182.1,19 179.9,20.2 178.2,22.5 C176.5,24.8 175.6,28.5 175.6,33.6 C175.6,38.8 176.4,42.6 178.1,44.9 C179.7,47.2 181.9,48.4 184.4,48.4 C186.4,48.4 188.2,47.6 189.6,46.1 C191.1,44.6 192,42.2 192.4,38.9 Z" id="Path"></path><path d="M223.6,40.6 L229.1,41.4 C228.2,45.5 226.5,48.6 224.1,50.7 C221.7,52.8 218.7,53.8 215.2,53.8 C210.7,53.8 207.1,52.1 204.4,48.7 C201.6,45.3 200.3,40.4 200.3,34.1 C200.3,27.5 201.7,22.4 204.5,19 C207.3,15.5 210.8,13.8 215.1,13.8 C219.2,13.8 222.6,15.5 225.3,18.9 C228,22.3 229.4,27.3 229.4,33.7 L229.4,35.4 L205.9,35.4 C206.1,39.7 207.1,43 208.9,45.2 C210.7,47.4 212.8,48.5 215.4,48.5 C219.3,48.5 222.1,45.9 223.6,40.6 Z M206.1,30.1 L223.7,30.1 C223.5,26.8 222.8,24.3 221.6,22.7 C219.9,20.3 217.7,19.1 215.1,19.1 C212.7,19.1 210.7,20.1 209,22.1 C207.2,24 206.3,26.7 206.1,30.1 Z" id="Shape" fill-rule="nonzero"></path></g><g id="Group" transform="translate(303.000000, 221.000000)" fill="#231F20"><path d="M0.2,37.6 L5.6,37 C5.9,39.9 6.5,42.2 7.6,43.8 C8.6,45.4 10.1,46.7 12,47.7 C13.9,48.7 16,49.2 18.4,49.2 C21.8,49.2 24.5,48.4 26.4,46.7 C28.3,45 29.2,42.9 29.2,40.2 C29.2,38.6 28.9,37.3 28.2,36.1 C27.5,34.9 26.5,34 25.1,33.2 C23.7,32.5 20.7,31.4 16.1,30 C12,28.8 9.1,27.6 7.4,26.3 C5.7,25.1 4.3,23.5 3.4,21.6 C2.4,19.7 2,17.6 2,15.2 C2,10.9 3.4,7.4 6.2,4.7 C9,2 12.7,0.6 17.4,0.6 C20.6,0.6 23.5,1.2 25.9,2.5 C28.3,3.8 30.2,5.6 31.5,8 C32.8,10.4 33.6,13.2 33.7,16.4 L28.2,16.9 C27.9,13.5 26.9,10.9 25.1,9.2 C23.3,7.5 20.8,6.7 17.6,6.7 C14.3,6.7 11.9,7.4 10.2,8.9 C8.5,10.4 7.6,12.2 7.6,14.6 C7.6,16.7 8.2,18.4 9.5,19.6 C10.8,20.8 13.6,22 18,23.2 C22.3,24.4 25.3,25.4 27,26.3 C29.6,27.7 31.6,29.4 33,31.6 C34.4,33.8 35,36.4 35,39.5 C35,42.5 34.3,45.3 32.9,47.8 C31.5,50.3 29.5,52.2 27.1,53.5 C24.7,54.8 21.7,55.5 18.3,55.5 C12.9,55.5 8.7,53.9 5.5,50.6 C2,47.5 0.4,43.1 0.2,37.6 Z" id="Path"></path><path d="M62.5,54.6 L62.5,49 C61.3,51.2 59.8,52.8 58.2,53.9 C56.5,55 54.7,55.5 52.6,55.5 C50.1,55.5 48,54.8 46.2,53.5 C44.4,52.2 43.3,50.5 42.7,48.4 C42.1,46.4 41.8,43.6 41.8,40 L41.8,16.2 L47.1,16.2 L47.1,37.5 C47.1,41.5 47.3,44.1 47.7,45.4 C48.1,46.7 48.8,47.8 49.9,48.6 C51,49.4 52.2,49.8 53.6,49.8 C56.2,49.8 58.2,48.7 59.9,46.7 C61.3,44.9 62,41.6 62,36.8 L62,16.3 L67.3,16.3 L67.3,54.7 L62.5,54.7 L62.5,54.6 Z" id="Path"></path><path d="M74.6,57.8 L79.8,58.7 C80,60.8 80.8,62.3 82,63.3 C83.2,64.3 84.9,64.8 87,64.8 C89.3,64.8 91.2,64.2 92.6,63.1 C94,62 94.9,60.3 95.4,58.1 C95.7,56.7 95.9,53.9 95.9,49.6 C94.7,51.3 93.4,52.5 92,53.3 C90.6,54.1 89,54.6 87.2,54.6 C83.4,54.6 80.3,53 77.8,49.8 C75,46.1 73.5,41.2 73.5,35.1 C73.5,31 74.1,27.4 75.4,24.3 C76.7,21.2 78.3,19 80.3,17.5 C82.3,16.1 84.6,15.3 87.1,15.3 C89,15.3 90.6,15.8 92.2,16.7 C93.7,17.6 95.1,19 96.3,20.8 L96.3,16.2 L101.2,16.2 L101.2,49.4 C101.2,55.3 100.7,59.5 99.8,62 C98.8,64.5 97.3,66.5 95.1,68 C92.9,69.5 90.3,70.2 87.2,70.2 C83.1,70.2 80,69.1 77.8,66.9 C75.6,64.7 74.5,61.7 74.6,57.8 Z M79,34.8 C79,39.8 79.8,43.5 81.5,45.8 C83.2,48.1 85.2,49.3 87.6,49.3 C90,49.3 92.1,48.2 93.8,45.9 C95.5,43.6 96.3,40 96.3,35.1 C96.3,30.3 95.4,26.7 93.7,24.3 C92,21.9 89.9,20.8 87.4,20.8 C85.2,20.8 83.2,22 81.6,24.3 C79.8,26.6 79,30.1 79,34.8 Z" id="Shape" fill-rule="nonzero"></path><path d="M108.3,57.8 L113.5,58.7 C113.7,60.8 114.5,62.3 115.7,63.3 C116.9,64.3 118.6,64.8 120.7,64.8 C123,64.8 124.9,64.2 126.3,63.1 C127.7,62 128.6,60.3 129.1,58.1 C129.4,56.7 129.6,53.9 129.6,49.6 C128.4,51.3 127.1,52.5 125.7,53.3 C124.3,54.1 122.7,54.6 120.9,54.6 C117.1,54.6 114,53 111.5,49.8 C108.7,46.1 107.2,41.2 107.2,35.1 C107.2,31 107.8,27.4 109.1,24.3 C110.4,21.2 112,19 114,17.5 C116,16.1 118.3,15.3 120.8,15.3 C122.7,15.3 124.3,15.8 125.9,16.7 C127.4,17.6 128.8,19 130,20.8 L130,16.2 L134.9,16.2 L134.9,49.4 C134.9,55.3 134.4,59.5 133.5,62 C132.5,64.5 131,66.5 128.8,68 C126.6,69.5 124,70.2 120.9,70.2 C116.8,70.2 113.7,69.1 111.5,66.9 C109.3,64.7 108.2,61.7 108.3,57.8 Z M112.7,34.8 C112.7,39.8 113.5,43.5 115.2,45.8 C116.9,48.1 118.9,49.3 121.3,49.3 C123.7,49.3 125.8,48.2 127.5,45.9 C129.2,43.6 130,40 130,35.1 C130,30.3 129.1,26.7 127.4,24.3 C125.7,21.9 123.6,20.8 121.1,20.8 C118.9,20.8 116.9,22 115.3,24.3 C113.5,26.6 112.7,30.1 112.7,34.8 Z" id="Shape" fill-rule="nonzero"></path><path d="M164.6,42.3 L170.1,43.1 C169.2,47.2 167.5,50.3 165.1,52.4 C162.7,54.5 159.7,55.5 156.2,55.5 C151.7,55.5 148.1,53.8 145.4,50.4 C142.6,47 141.3,42.1 141.3,35.8 C141.3,29.2 142.7,24.1 145.5,20.7 C148.3,17.2 151.8,15.5 156.1,15.5 C160.2,15.5 163.6,17.2 166.3,20.6 C169,24 170.4,29 170.4,35.4 L170.4,37.1 L146.9,37.1 C147.1,41.4 148.1,44.7 149.9,46.9 C151.7,49.1 153.8,50.2 156.4,50.2 C160.2,50.1 163,47.5 164.6,42.3 Z M147.1,31.8 L164.7,31.8 C164.5,28.5 163.7,26 162.6,24.4 C160.9,22 158.7,20.8 156.1,20.8 C153.7,20.8 151.7,21.8 150,23.8 C148.2,25.7 147.2,28.4 147.1,31.8 Z" id="Shape" fill-rule="nonzero"></path><path d="M174.8,43.1 L180.1,42.1 C180.4,44.8 181.3,46.8 182.7,48.1 C184.1,49.4 185.9,50.1 188.2,50.1 C190.5,50.1 192.3,49.5 193.6,48.4 C194.9,47.3 195.5,45.8 195.5,44 C195.5,42.5 195,41.3 193.9,40.5 C193.2,39.9 191.3,39.2 188.5,38.3 C184.4,37 181.6,35.9 180.2,35 C178.8,34.1 177.7,32.9 176.9,31.4 C176.1,29.9 175.7,28.2 175.7,26.3 C175.7,23 176.7,20.4 178.8,18.3 C180.9,16.3 183.8,15.2 187.5,15.2 C189.8,15.2 191.9,15.6 193.7,16.5 C195.5,17.3 196.8,18.5 197.8,19.9 C198.7,21.3 199.4,23.4 199.7,26 L194.5,26.9 C194,22.7 191.7,20.6 187.7,20.6 C185.4,20.6 183.7,21.1 182.5,22 C181.4,22.9 180.8,24.1 180.8,25.6 C180.8,27 181.3,28.1 182.4,28.9 C183,29.4 185,30.1 188.2,31.2 C192.6,32.6 195.5,33.7 196.8,34.5 C198.1,35.3 199.1,36.5 199.8,37.9 C200.5,39.3 200.9,41 200.9,43 C200.9,46.7 199.7,49.6 197.4,51.9 C195.1,54.2 191.9,55.3 187.9,55.3 C180.3,55.5 176,51.4 174.8,43.1 Z" id="Path"></path><path d="M219,48.8 L219.7,54.5 C218.2,54.9 216.9,55.1 215.7,55.1 C213.8,55.1 212.4,54.7 211.2,54 C210.1,53.3 209.3,52.3 208.9,51 C208.5,49.7 208.3,47.2 208.3,43.4 L208.3,21.3 L204.4,21.3 L204.4,16.2 L208.3,16.2 L208.3,6.7 L213.6,2.8 L213.6,16.2 L219,16.2 L219,21.3 L213.6,21.3 L213.6,43.7 C213.6,45.8 213.8,47.1 214.1,47.7 C214.6,48.6 215.4,49 216.7,49 C217.3,49.1 218,49 219,48.8 Z" id="Path"></path><path d="M224,9.2 L224,1.7 L229.3,1.7 L229.3,9.2 L224,9.2 Z M224,54.6 L224,16.2 L229.3,16.2 L229.3,54.6 L224,54.6 Z" id="Shape" fill-rule="nonzero"></path><path d="M246.3,54.6 L234.3,16.2 L239.9,16.2 L246.7,39.2 C247.5,41.8 248.1,44.4 248.7,46.9 C249.2,44.9 249.8,42.4 250.6,39.6 L257.6,16.2 L263.1,16.2 L251.1,54.6 L246.3,54.6 Z" id="Path"></path><path d="M289.3,42.3 L294.8,43.1 C293.9,47.2 292.2,50.3 289.8,52.4 C287.4,54.5 284.4,55.5 280.9,55.5 C276.4,55.5 272.8,53.8 270.1,50.4 C267.3,47 266,42.1 266,35.8 C266,29.2 267.4,24.1 270.2,20.7 C273,17.2 276.5,15.5 280.8,15.5 C284.9,15.5 288.3,17.2 291,20.6 C293.7,24 295.1,29 295.1,35.4 L295.1,37.1 L271.6,37.1 C271.8,41.4 272.8,44.7 274.6,46.9 C276.4,49.1 278.5,50.2 281.1,50.2 C285,50.1 287.8,47.5 289.3,42.3 Z M271.8,31.8 L289.4,31.8 C289.2,28.5 288.5,26 287.3,24.4 C285.6,22 283.4,20.8 280.8,20.8 C278.4,20.8 276.4,21.8 274.7,23.8 C272.9,25.7 272,28.4 271.8,31.8 Z" id="Shape" fill-rule="nonzero"></path><polygon id="Path" points="329.3 54.6 329.3 7.9 315 7.9 315 1.7 349.4 1.7 349.4 7.9 335 7.9 335 54.6"></polygon><path d="M354.5,54.6 L354.5,1.7 L359.8,1.7 L359.8,20.7 C361.1,18.9 362.5,17.6 364,16.7 C365.6,15.8 367.3,15.4 369.2,15.4 C372.5,15.4 375.2,16.5 377.1,18.6 C379,20.7 380,24.6 380,30.3 L380,54.6 L374.7,54.6 L374.7,30.3 C374.7,27 374.1,24.6 372.9,23.2 C371.7,21.8 370.1,21 368,21 C365.7,21 363.7,21.9 362.1,23.8 C360.5,25.7 359.7,28.9 359.7,33.7 L359.7,54.7 L354.5,54.7 L354.5,54.6 Z" id="Path"></path><path d="M409.7,42.3 L415.2,43.1 C414.3,47.2 412.6,50.3 410.2,52.4 C407.8,54.5 404.8,55.5 401.3,55.5 C396.8,55.5 393.2,53.8 390.5,50.4 C387.7,47 386.4,42.1 386.4,35.8 C386.4,29.2 387.8,24.1 390.6,20.7 C393.4,17.2 396.9,15.5 401.2,15.5 C405.3,15.5 408.7,17.2 411.4,20.6 C414.1,24 415.5,29 415.5,35.4 L415.5,37.1 L392,37.1 C392.2,41.4 393.2,44.7 395,46.9 C396.8,49.1 398.9,50.2 401.5,50.2 C405.3,50.1 408.1,47.5 409.7,42.3 Z M392.2,31.8 L409.8,31.8 C409.6,28.5 408.9,26 407.7,24.4 C406,22 403.8,20.8 401.2,20.8 C398.8,20.8 396.8,21.8 395.1,23.8 C393.3,25.7 392.3,28.4 392.2,31.8 Z" id="Shape" fill-rule="nonzero"></path><path d="M422,54.6 L422,16.2 L426.8,16.2 L426.8,21.5 C427.9,19.5 429.2,18 430.9,16.9 C432.6,15.8 434.4,15.3 436.3,15.3 C438.5,15.3 440.4,15.9 441.9,17 C443.4,18.1 444.5,19.8 445.2,22 C446.5,19.8 447.9,18.1 449.5,17 C451.1,15.9 452.9,15.3 454.9,15.3 C457.9,15.3 460.3,16.3 462,18.4 C463.7,20.5 464.6,23.7 464.6,28.2 L464.6,54.5 L459.3,54.5 L459.3,30.3 C459.3,27.6 459.1,25.6 458.7,24.5 C458.3,23.4 457.7,22.5 456.8,21.8 C455.9,21.2 454.9,20.9 453.8,20.9 C451.5,20.9 449.6,21.8 448.2,23.6 C446.8,25.4 446,28.3 446,32.2 L446,54.5 L440.7,54.5 L440.7,29.5 C440.7,26.3 440.2,24.1 439.2,22.8 C438.2,21.5 436.9,20.8 435.2,20.8 C432.8,20.8 430.8,21.8 429.4,23.7 C428,25.7 427.3,29.3 427.3,34.5 L427.3,54.4 L422,54.4 L422,54.6 Z" id="Path"></path><path d="M493.9,42.3 L499.4,43.1 C498.5,47.2 496.8,50.3 494.4,52.4 C492,54.5 489,55.5 485.5,55.5 C481,55.5 477.4,53.8 474.7,50.4 C471.9,47 470.6,42.1 470.6,35.8 C470.6,29.2 472,24.1 474.8,20.7 C477.6,17.2 481.1,15.5 485.4,15.5 C489.5,15.5 492.9,17.2 495.6,20.6 C498.3,24 499.7,29 499.7,35.4 L499.7,37.1 L476.2,37.1 C476.4,41.4 477.4,44.7 479.2,46.9 C481,49.1 483.1,50.2 485.7,50.2 C489.6,50.1 492.4,47.5 493.9,42.3 Z M476.4,31.8 L494,31.8 C493.8,28.5 493.1,26 491.9,24.4 C490.2,22 488,20.8 485.4,20.8 C483,20.8 481,21.8 479.3,23.8 C477.5,25.7 476.6,28.4 476.4,31.8 Z" id="Shape" fill-rule="nonzero"></path><path d="M504.1,43.1 L509.4,42.1 C509.7,44.8 510.6,46.8 512,48.1 C513.4,49.4 515.2,50.1 517.5,50.1 C519.8,50.1 521.6,49.5 522.9,48.4 C524.2,47.3 524.8,45.8 524.8,44 C524.8,42.5 524.3,41.3 523.2,40.5 C522.5,39.9 520.6,39.2 517.8,38.3 C513.7,37 510.9,35.9 509.5,35 C508.1,34.1 507,32.9 506.2,31.4 C505.4,29.9 505,28.2 505,26.3 C505,23 506,20.4 508.1,18.3 C510.2,16.3 513.1,15.2 516.8,15.2 C519.1,15.2 521.2,15.6 523,16.5 C524.8,17.3 526.1,18.5 527.1,19.9 C528,21.3 528.7,23.4 529.1,26 L523.9,26.9 C523.4,22.7 521.1,20.6 517.1,20.6 C514.8,20.6 513.1,21.1 511.9,22 C510.8,22.9 510.2,24.1 510.2,25.6 C510.2,27 510.7,28.1 511.8,28.9 C512.4,29.4 514.4,30.1 517.6,31.2 C522,32.6 524.9,33.7 526.2,34.5 C527.5,35.3 528.5,36.5 529.2,37.9 C529.9,39.3 530.3,41 530.3,43 C530.3,46.7 529.1,49.6 526.8,51.9 C524.5,54.2 521.3,55.3 517.3,55.3 C509.7,55.5 505.3,51.4 504.1,43.1 Z" id="Path"></path></g></g></g></g></svg> 